<svg xmlns="http://www.w3.org/2000/svg" xmlns:xlink="http://www.w3.org/1999/xlink" style="isolation:isolate" viewBox="0 0 4000 4000" width="4000" height="4000"><defs><clipPath id="_clipPath_3s8uw69mycwnfkpxtTB7bDhhdmhxEFSX"><rect width="4000" height="4000"/></clipPath></defs><g clip-path="url(#_clipPath_3s8uw69mycwnfkpxtTB7bDhhdmhxEFSX)"><rect width="4000" height="4000" style="fill:rgb(0,0,0)" fill-opacity="0"/><g><g><path d=" M 1553.209 2418.983 C 1650.782 2320.451 1780.696 2254.035 1925.619 2236.94 L 1925.619 2072.376 L 2074.381 2072.376 L 2074.381 2236.94 C 2219.308 2254.035 2349.224 2320.454 2446.798 2418.991 C 2545.328 2516.563 2611.743 2646.475 2628.838 2791.396 L 2793.402 2791.396 L 2793.402 2940.159 L 2628.838 2940.159 C 2611.743 3085.082 2545.326 3214.996 2446.795 3312.569 C 2349.221 3411.103 2219.306 3477.521 2074.381 3494.616 L 2074.381 3659.179 L 1925.619 3659.179 L 1925.619 3494.616 C 1780.697 3477.521 1650.784 3411.106 1553.211 3312.575 C 1454.676 3215.001 1388.257 3085.085 1371.162 2940.159 L 1206.598 2940.159 L 1206.598 2791.396 L 1371.162 2791.396 C 1388.257 2646.472 1454.675 2516.557 1553.209 2418.983 Z " fill="rgb(0,0,0)" stroke-width="20" stroke="rgb(255,153,0)" stroke-linejoin="miter" stroke-linecap="square" stroke-miterlimit="3"/><path d=" M 1389.67 2702.238 C 1424.905 2568.12 1504.205 2445.645 1621.165 2358.379 L 1538.883 2215.862 L 1667.715 2141.481 L 1749.997 2283.998 C 1884.055 2226.339 2029.776 2218.902 2163.545 2255.449 C 2297.661 2290.685 2420.134 2369.985 2507.399 2486.943 L 2649.916 2404.661 L 2724.297 2533.493 L 2581.78 2615.775 C 2639.437 2749.83 2646.876 2895.546 2610.331 3029.313 C 2575.097 3163.433 2495.796 3285.91 2378.835 3373.177 L 2461.117 3515.693 L 2332.285 3590.075 L 2250.003 3447.558 C 2115.95 3505.215 1970.234 3512.654 1836.468 3476.11 C 1702.347 3440.876 1579.869 3361.575 1492.601 3244.613 L 1350.085 3326.895 L 1275.703 3198.062 L 1418.22 3115.781 C 1360.562 2981.725 1353.124 2836.006 1389.67 2702.238 Z " fill="rgb(0,0,0)" stroke-width="20" stroke="rgb(255,153,0)" stroke-linejoin="miter" stroke-linecap="square" stroke-miterlimit="3"/><path d=" M 1389.669 3029.313 C 1353.124 2895.546 1360.563 2749.829 1418.22 2615.775 L 1275.703 2533.493 L 1350.085 2404.661 L 1492.601 2486.943 C 1579.869 2369.98 1702.348 2290.679 1836.47 2255.445 C 1970.235 2218.902 2115.95 2226.341 2250.003 2283.998 L 2332.285 2141.481 L 2461.117 2215.862 L 2378.835 2358.379 C 2495.795 2445.645 2575.095 2568.12 2610.33 2702.238 C 2646.876 2836.006 2639.438 2981.725 2581.78 3115.781 L 2724.297 3198.063 L 2649.915 3326.895 L 2507.399 3244.613 C 2420.134 3361.571 2297.66 3440.872 2163.543 3476.107 C 2029.774 3512.654 1884.054 3505.216 1749.997 3447.558 L 1667.715 3590.075 L 1538.883 3515.693 L 1621.165 3373.177 C 1504.204 3285.91 1424.903 3163.433 1389.669 3029.313 Z " fill="rgb(0,0,0)" stroke-width="20" stroke="rgb(255,153,0)" stroke-linejoin="miter" stroke-linecap="square" stroke-miterlimit="3"/><path d=" M 1553.209 2418.983 C 1650.782 2320.451 1780.696 2254.035 1925.619 2236.94 L 1925.619 2072.376 L 2074.381 2072.376 L 2074.381 2236.94 C 2219.308 2254.035 2349.224 2320.454 2446.798 2418.991 C 2545.328 2516.563 2611.743 2646.475 2628.838 2791.396 L 2793.402 2791.396 L 2793.402 2940.159 L 2628.838 2940.159 C 2611.743 3085.082 2545.326 3214.996 2446.795 3312.569 C 2349.221 3411.103 2219.306 3477.521 2074.381 3494.616 L 2074.381 3659.179 L 1925.619 3659.179 L 1925.619 3494.616 C 1780.697 3477.521 1650.784 3411.106 1553.211 3312.575 C 1454.676 3215.001 1388.257 3085.085 1371.162 2940.159 L 1206.598 2940.159 L 1206.598 2791.396 L 1371.162 2791.396 C 1388.257 2646.472 1454.675 2516.557 1553.209 2418.983 Z " fill="rgb(0,0,0)"/><path d=" M 1389.67 2702.238 C 1424.905 2568.12 1504.205 2445.645 1621.165 2358.379 L 1538.883 2215.862 L 1667.715 2141.481 L 1749.997 2283.998 C 1884.055 2226.339 2029.776 2218.902 2163.545 2255.449 C 2297.661 2290.685 2420.134 2369.985 2507.399 2486.943 L 2649.916 2404.661 L 2724.297 2533.493 L 2581.78 2615.775 C 2639.437 2749.83 2646.876 2895.546 2610.331 3029.313 C 2575.097 3163.433 2495.796 3285.91 2378.835 3373.177 L 2461.117 3515.693 L 2332.285 3590.075 L 2250.003 3447.558 C 2115.95 3505.215 1970.234 3512.654 1836.468 3476.11 C 1702.347 3440.876 1579.869 3361.575 1492.601 3244.613 L 1350.085 3326.895 L 1275.703 3198.062 L 1418.22 3115.781 C 1360.562 2981.725 1353.124 2836.006 1389.67 2702.238 Z " fill="rgb(0,0,0)"/><path d=" M 1389.669 3029.313 C 1353.124 2895.546 1360.563 2749.829 1418.22 2615.775 L 1275.703 2533.493 L 1350.085 2404.661 L 1492.601 2486.943 C 1579.869 2369.98 1702.348 2290.679 1836.47 2255.445 C 1970.235 2218.902 2115.95 2226.341 2250.003 2283.998 L 2332.285 2141.481 L 2461.117 2215.862 L 2378.835 2358.379 C 2495.795 2445.645 2575.095 2568.12 2610.33 2702.238 C 2646.876 2836.006 2639.438 2981.725 2581.78 3115.781 L 2724.297 3198.063 L 2649.915 3326.895 L 2507.399 3244.613 C 2420.134 3361.571 2297.66 3440.872 2163.543 3476.107 C 2029.774 3512.654 1884.054 3505.216 1749.997 3447.558 L 1667.715 3590.075 L 1538.883 3515.693 L 1621.165 3373.177 C 1504.204 3285.91 1424.903 3163.433 1389.669 3029.313 Z " fill="rgb(0,0,0)"/></g><path d=" M 1999.477 2450.094 L 1639.528 2658.749 L 1639.528 3072.806 L 1999.477 3281.462 L 2359.426 3072.806 L 2359.426 2658.749 L 1999.477 2450.094 L 1999.477 2450.094 Z " fill="rgb(255,153,0)"/><path d=" M 1899.261 3050.195 L 1898.939 3050.751 L 2000.065 3092.032 L 2101.191 3050.751 L 2100.879 3050.212 L 2212.904 2730.807 L 2212.038 2730.807 L 2133.367 2639.524 L 2129.673 2639.524 L 1999.247 2656.023 L 1868.412 2639.524 L 1865.678 2639.524 L 1786.691 2731.173 L 1787.37 2731.173 L 1899.261 3050.195 Z " fill="rgb(255,153,0)"/><path d=" M 1899.261 3050.195 L 1898.939 3050.751 L 2000.065 3092.032 L 2101.191 3050.751 L 2100.879 3050.212 L 2212.904 2730.807 L 2212.038 2730.807 L 2133.367 2639.524 L 2129.673 2639.524 L 1999.247 2656.023 L 1868.412 2639.524 L 1865.678 2639.524 L 1786.691 2731.173 L 1787.37 2731.173 L 1899.261 3050.195 L 1899.261 3050.195 Z " fill="rgb(255,255,255)"/><path d=" M 1959.043 2791.401 L 1850.47 2769.917 L 1873.138 2813.727 L 1872.237 2813.959 L 1873.258 2813.959 L 1873.488 2814.403 L 1875.153 2813.959 L 1936.725 2813.959 L 1958.88 2791.66 L 1958.496 2791.759 L 1958.882 2791.656 L 1959.043 2791.401 L 1959.043 2791.401 L 1959.043 2791.401 L 1959.043 2791.401 L 1959.043 2791.401 L 1959.043 2791.401 Z " fill="rgb(0,0,0)"/><path d=" M 1959.043 2791.401 L 1936.725 2813.959 L 1927.217 2842.555 L 1944.801 2813.959 L 1944.871 2813.959 L 1958.88 2791.66 L 1958.496 2791.759 L 1958.882 2791.656 L 1959.043 2791.401 L 1959.043 2791.401 L 1959.043 2791.401 L 1959.043 2791.401 L 1959.043 2791.401 L 1959.043 2791.401 Z " fill="rgb(0,0,0)"/><path d=" M 2039.857 2791.401 L 2062.175 2813.959 L 2071.683 2842.555 L 2054.099 2813.959 L 2054.029 2813.959 L 2040.02 2791.66 L 2040.403 2791.759 L 2040.018 2791.656 L 2039.857 2791.401 L 2039.857 2791.401 L 2039.857 2791.401 L 2039.857 2791.401 L 2039.857 2791.401 L 2039.857 2791.401 Z " fill="rgb(0,0,0)"/><path d=" M 2039.857 2791.401 L 2148.43 2769.917 L 2125.762 2813.727 L 2126.663 2813.959 L 2125.642 2813.959 L 2125.412 2814.403 L 2123.747 2813.959 L 2062.175 2813.959 L 2040.02 2791.66 L 2040.403 2791.759 L 2040.018 2791.656 L 2039.857 2791.401 L 2039.857 2791.401 L 2039.857 2791.401 L 2039.857 2791.401 L 2039.857 2791.401 L 2039.857 2791.401 Z " fill="rgb(0,0,0)"/><path d=" M 1865.491 2953.91 L 1861.384 2942.202 L 1901.323 2886.72 L 1865.491 2953.91 L 1865.491 2953.91 L 1865.491 2953.91 L 1865.491 2953.91 L 1865.491 2953.91 Z " fill="rgb(0,0,0)"/><path d=" M 2108.025 3029.838 L 2008.971 3005.544 L 2111.03 3021.271 L 2108.025 3029.838 L 2108.025 3029.838 L 2108.025 3029.838 L 2108.025 3029.838 Z " fill="rgb(0,0,0)"/><path d=" M 1889.055 3021.096 L 1989.975 3005.544 L 1892.026 3029.567 L 1889.055 3021.096 L 1889.055 3021.096 L 1889.055 3021.096 Z " fill="rgb(0,0,0)"/><path d=" M 2134.699 2953.784 L 2134.699 2953.784 L 2098.934 2886.72 L 2138.798 2942.099 L 2134.699 2953.784 L 2134.699 2953.784 Z " fill="rgb(0,0,0)"/><path d=" M 1995.388 2956.793 L 1939.722 2915.472 L 2059.018 2915.472 L 2003.91 2956.379 L 1999.629 3000.3 L 1995.388 2956.793 Z " fill="rgb(0,0,0)"/></g><g><g><path d=" M 401.371 1553.205 C 498.944 1454.673 628.857 1388.257 773.78 1371.162 L 773.78 1206.598 L 922.543 1206.598 L 922.543 1371.162 C 1067.47 1388.257 1197.386 1454.676 1294.96 1553.213 C 1393.49 1650.785 1459.905 1780.697 1476.999 1925.619 L 1641.564 1925.619 L 1641.564 2074.381 L 1476.999 2074.381 C 1459.905 2219.304 1393.488 2349.218 1294.956 2446.791 C 1197.383 2545.325 1067.468 2611.743 922.543 2628.838 L 922.543 2793.402 L 773.78 2793.402 L 773.78 2628.838 C 628.859 2611.743 498.946 2545.328 401.373 2446.797 C 302.838 2349.223 236.419 2219.307 219.324 2074.381 L 54.76 2074.381 L 54.76 1925.618 L 219.324 1925.618 C 236.419 1780.694 302.837 1650.779 401.371 1553.205 Z " fill="rgb(0,0,0)" stroke-width="20" stroke="rgb(255,153,0)" stroke-linejoin="miter" stroke-linecap="square" stroke-miterlimit="3"/><path d=" M 237.832 1836.46 C 273.067 1702.342 352.367 1579.867 469.327 1492.601 L 387.045 1350.085 L 515.877 1275.703 L 598.159 1418.22 C 732.217 1360.561 877.937 1353.124 1011.707 1389.672 C 1145.823 1424.907 1268.296 1504.207 1355.561 1621.165 L 1498.077 1538.883 L 1572.459 1667.715 L 1429.942 1749.997 C 1487.599 1884.052 1495.037 2029.769 1458.493 2163.535 C 1423.259 2297.655 1343.958 2420.132 1226.997 2507.399 L 1309.279 2649.915 L 1180.446 2724.297 L 1098.164 2581.78 C 964.111 2639.437 818.396 2646.876 684.63 2610.332 C 550.509 2575.098 428.03 2495.797 340.763 2378.835 L 198.246 2461.117 L 123.865 2332.285 L 266.381 2250.003 C 208.724 2115.947 201.286 1970.228 237.832 1836.46 Z " fill="rgb(0,0,0)" stroke-width="20" stroke="rgb(255,153,0)" stroke-linejoin="miter" stroke-linecap="square" stroke-miterlimit="3"/><path d=" M 237.831 2163.535 C 201.286 2029.768 208.724 1884.052 266.381 1749.997 L 123.865 1667.715 L 198.246 1538.883 L 340.763 1621.165 C 428.031 1504.202 550.51 1424.901 684.632 1389.668 C 818.397 1353.125 964.112 1360.564 1098.165 1418.22 L 1180.447 1275.703 L 1309.279 1350.085 L 1226.997 1492.601 C 1343.956 1579.867 1423.257 1702.343 1458.492 1836.46 C 1495.038 1970.228 1487.6 2115.947 1429.942 2250.003 L 1572.458 2332.285 L 1498.077 2461.117 L 1355.561 2378.835 C 1268.295 2495.794 1145.822 2575.094 1011.705 2610.329 C 877.936 2646.876 732.216 2639.439 598.159 2581.78 L 515.877 2724.297 L 387.045 2649.915 L 469.327 2507.399 C 352.366 2420.132 273.065 2297.655 237.831 2163.535 Z " fill="rgb(0,0,0)" stroke-width="20" stroke="rgb(255,153,0)" stroke-linejoin="miter" stroke-linecap="square" stroke-miterlimit="3"/><path d=" M 401.371 1553.205 C 498.944 1454.673 628.857 1388.257 773.78 1371.162 L 773.78 1206.598 L 922.543 1206.598 L 922.543 1371.162 C 1067.47 1388.257 1197.386 1454.676 1294.96 1553.213 C 1393.49 1650.785 1459.905 1780.697 1476.999 1925.619 L 1641.564 1925.619 L 1641.564 2074.381 L 1476.999 2074.381 C 1459.905 2219.304 1393.488 2349.218 1294.956 2446.791 C 1197.383 2545.325 1067.468 2611.743 922.543 2628.838 L 922.543 2793.402 L 773.78 2793.402 L 773.78 2628.838 C 628.859 2611.743 498.946 2545.328 401.373 2446.797 C 302.838 2349.223 236.419 2219.307 219.324 2074.381 L 54.76 2074.381 L 54.76 1925.618 L 219.324 1925.618 C 236.419 1780.694 302.837 1650.779 401.371 1553.205 Z " fill="rgb(0,0,0)"/><path d=" M 237.832 1836.46 C 273.067 1702.342 352.367 1579.867 469.327 1492.601 L 387.045 1350.085 L 515.877 1275.703 L 598.159 1418.22 C 732.217 1360.561 877.937 1353.124 1011.707 1389.672 C 1145.823 1424.907 1268.296 1504.207 1355.561 1621.165 L 1498.077 1538.883 L 1572.459 1667.715 L 1429.942 1749.997 C 1487.599 1884.052 1495.037 2029.769 1458.493 2163.535 C 1423.259 2297.655 1343.958 2420.132 1226.997 2507.399 L 1309.279 2649.915 L 1180.446 2724.297 L 1098.164 2581.78 C 964.111 2639.437 818.396 2646.876 684.63 2610.332 C 550.509 2575.098 428.03 2495.797 340.763 2378.835 L 198.246 2461.117 L 123.865 2332.285 L 266.381 2250.003 C 208.724 2115.947 201.286 1970.228 237.832 1836.46 Z " fill="rgb(0,0,0)"/><path d=" M 237.831 2163.535 C 201.286 2029.768 208.724 1884.052 266.381 1749.997 L 123.865 1667.715 L 198.246 1538.883 L 340.763 1621.165 C 428.031 1504.202 550.51 1424.901 684.632 1389.668 C 818.397 1353.125 964.112 1360.564 1098.165 1418.22 L 1180.447 1275.703 L 1309.279 1350.085 L 1226.997 1492.601 C 1343.956 1579.867 1423.257 1702.343 1458.492 1836.46 C 1495.038 1970.228 1487.6 2115.947 1429.942 2250.003 L 1572.458 2332.285 L 1498.077 2461.117 L 1355.561 2378.835 C 1268.295 2495.794 1145.822 2575.094 1011.705 2610.329 C 877.936 2646.876 732.216 2639.439 598.159 2581.78 L 515.877 2724.297 L 387.045 2649.915 L 469.327 2507.399 C 352.366 2420.132 273.065 2297.655 237.831 2163.535 Z " fill="rgb(0,0,0)"/></g><path d=" M 750.717 2300.413 L 673.059 1942.522 L 672.986 1942.522 L 672.986 1842.493 L 1023.837 1842.493 L 1023.837 1942.484 L 1023.915 1942.484 L 946.248 2300.413 L 946.392 2300.413 L 848.162 2339.314 L 749.931 2300.413 L 750.717 2300.413 Z " fill="rgb(255,153,0)"/><path d=" M 1306.683 1816.736 L 1260.821 1826.087 L 1260.913 1826.405 L 1213.187 1848.864 L 1138.022 1856.312 L 1138.022 1856.111 L 1137.638 1856.063 L 1137.559 1855.675 L 1137.556 1856.053 L 1030.968 1842.64 L 1030.968 1941.677 L 1136.991 1928.336 L 1136.988 1928.642 L 1151.833 1925.809 L 1151.778 1925.537 L 1224.212 1901.518 L 1224.236 1901.557 L 1224.357 1901.47 L 1224.541 1901.409 L 1224.528 1901.348 L 1279.773 1861.728 L 1309.998 1850.527 L 1424.141 1823.086 L 1307.527 1816.617 L 1307.512 1816.567 L 1307.322 1816.605 L 1306.667 1816.569 L 1306.683 1816.736 Z " fill="rgb(255,255,255)"/><path d=" M 389.641 1816.736 L 435.503 1826.087 L 435.411 1826.405 L 483.137 1848.864 L 558.302 1856.312 L 558.302 1856.111 L 558.685 1856.063 L 558.764 1855.675 L 558.767 1856.053 L 665.355 1842.64 L 665.355 1941.677 L 559.333 1928.336 L 559.335 1928.642 L 544.49 1925.809 L 544.546 1925.537 L 472.111 1901.518 L 472.088 1901.557 L 471.966 1901.47 L 471.782 1901.409 L 471.796 1901.348 L 416.551 1861.728 L 386.326 1850.527 L 272.183 1823.086 L 388.797 1816.617 L 388.811 1816.567 L 389.001 1816.605 L 389.656 1816.569 L 389.641 1816.736 Z " fill="rgb(255,255,255)"/><path d=" M 927.595 2165.179 L 914.891 2092.288 L 915.177 2167.042 L 927.88 2239.934 L 927.595 2165.179 Z " fill="rgb(0,0,0)"/><path d=" M 896.904 2044.863 L 964.205 2021.653 L 985.544 1948.451 L 896.904 2044.863 Z " fill="rgb(0,0,0)"/><path d=" M 769.376 2165.179 L 782.079 2092.288 L 781.794 2167.042 L 769.09 2239.934 L 769.376 2165.179 Z " fill="rgb(0,0,0)"/><path d=" M 800.068 2044.863 L 732.766 2021.653 L 711.427 1948.451 L 800.068 2044.863 Z " fill="rgb(0,0,0)"/><path d=" M 929.811 2299.676 L 889.248 2300.7 L 861.396 2328.526 L 929.811 2299.676 Z " fill="rgb(0,0,0)"/><path d=" M 765.753 2299.676 L 806.316 2300.7 L 834.169 2328.526 L 765.753 2299.676 Z " fill="rgb(0,0,0)"/></g><g><path d=" M 2705.047 1553.205 C 2802.62 1454.673 2932.534 1388.257 3077.457 1371.162 L 3077.457 1206.598 L 3226.22 1206.598 L 3226.22 1371.162 C 3371.146 1388.257 3501.063 1454.676 3598.637 1553.213 C 3697.166 1650.785 3763.582 1780.697 3780.676 1925.619 L 3945.24 1925.619 L 3945.24 2074.381 L 3780.676 2074.381 C 3763.581 2219.304 3697.165 2349.218 3598.633 2446.791 C 3501.059 2545.325 3371.144 2611.743 3226.219 2628.838 L 3226.219 2793.402 L 3077.457 2793.402 L 3077.457 2628.838 C 2932.535 2611.743 2802.622 2545.328 2705.049 2446.797 C 2606.514 2349.223 2540.095 2219.307 2523 2074.381 L 2358.436 2074.381 L 2358.436 1925.618 L 2523 1925.618 C 2540.095 1780.694 2606.513 1650.779 2705.047 1553.205 Z " fill="rgb(0,0,0)" stroke-width="20" stroke="rgb(255,153,0)" stroke-linejoin="miter" stroke-linecap="square" stroke-miterlimit="3"/><path d=" M 2541.508 1836.46 C 2576.743 1702.342 2656.043 1579.867 2773.003 1492.601 L 2690.721 1350.085 L 2819.554 1275.703 L 2901.835 1418.22 C 3035.893 1360.561 3181.614 1353.124 3315.383 1389.672 C 3449.499 1424.907 3571.972 1504.207 3659.237 1621.165 L 3801.754 1538.883 L 3876.135 1667.715 L 3733.618 1749.997 C 3791.275 1884.052 3798.714 2029.769 3762.169 2163.535 C 3726.935 2297.655 3647.634 2420.132 3530.673 2507.399 L 3612.955 2649.915 L 3484.123 2724.297 L 3401.841 2581.78 C 3267.788 2639.437 3122.072 2646.876 2988.306 2610.332 C 2854.185 2575.098 2731.707 2495.797 2644.439 2378.835 L 2501.923 2461.117 L 2427.541 2332.285 L 2570.058 2250.003 C 2512.4 2115.947 2504.962 1970.228 2541.508 1836.46 Z " fill="rgb(0,0,0)" stroke-width="20" stroke="rgb(255,153,0)" stroke-linejoin="miter" stroke-linecap="square" stroke-miterlimit="3"/><path d=" M 2541.507 2163.535 C 2504.962 2029.768 2512.401 1884.051 2570.058 1749.997 L 2427.541 1667.715 L 2501.923 1538.883 L 2644.439 1621.165 C 2731.707 1504.202 2854.186 1424.901 2988.308 1389.668 C 3122.074 1353.125 3267.788 1360.564 3401.841 1418.22 L 3484.123 1275.703 L 3612.955 1350.085 L 3530.673 1492.601 C 3647.633 1579.867 3726.933 1702.343 3762.168 1836.46 C 3798.714 1970.228 3791.276 2115.947 3733.618 2250.003 L 3876.135 2332.285 L 3801.753 2461.117 L 3659.237 2378.835 C 3571.972 2495.794 3449.498 2575.094 3315.381 2610.329 C 3181.612 2646.876 3035.892 2639.439 2901.835 2581.78 L 2819.553 2724.297 L 2690.721 2649.915 L 2773.003 2507.399 C 2656.042 2420.132 2576.741 2297.655 2541.507 2163.535 Z " fill="rgb(0,0,0)" stroke-width="20" stroke="rgb(255,153,0)" stroke-linejoin="miter" stroke-linecap="square" stroke-miterlimit="3"/><path d=" M 2705.047 1553.205 C 2802.62 1454.673 2932.534 1388.257 3077.457 1371.162 L 3077.457 1206.598 L 3226.22 1206.598 L 3226.22 1371.162 C 3371.146 1388.257 3501.063 1454.676 3598.637 1553.213 C 3697.166 1650.785 3763.582 1780.697 3780.676 1925.619 L 3945.24 1925.619 L 3945.24 2074.381 L 3780.676 2074.381 C 3763.581 2219.304 3697.165 2349.218 3598.633 2446.791 C 3501.059 2545.325 3371.144 2611.743 3226.219 2628.838 L 3226.219 2793.402 L 3077.457 2793.402 L 3077.457 2628.838 C 2932.535 2611.743 2802.622 2545.328 2705.049 2446.797 C 2606.514 2349.223 2540.095 2219.307 2523 2074.381 L 2358.436 2074.381 L 2358.436 1925.618 L 2523 1925.618 C 2540.095 1780.694 2606.513 1650.779 2705.047 1553.205 Z " fill="rgb(0,0,0)"/><path d=" M 2541.508 1836.46 C 2576.743 1702.342 2656.043 1579.867 2773.003 1492.601 L 2690.721 1350.085 L 2819.554 1275.703 L 2901.835 1418.22 C 3035.893 1360.561 3181.614 1353.124 3315.383 1389.672 C 3449.499 1424.907 3571.972 1504.207 3659.237 1621.165 L 3801.754 1538.883 L 3876.135 1667.715 L 3733.618 1749.997 C 3791.275 1884.052 3798.714 2029.769 3762.169 2163.535 C 3726.935 2297.655 3647.634 2420.132 3530.673 2507.399 L 3612.955 2649.915 L 3484.123 2724.297 L 3401.841 2581.78 C 3267.788 2639.437 3122.072 2646.876 2988.306 2610.332 C 2854.185 2575.098 2731.707 2495.797 2644.439 2378.835 L 2501.923 2461.117 L 2427.541 2332.285 L 2570.058 2250.003 C 2512.4 2115.947 2504.962 1970.228 2541.508 1836.46 Z " fill="rgb(0,0,0)"/><path d=" M 2541.507 2163.535 C 2504.962 2029.768 2512.401 1884.051 2570.058 1749.997 L 2427.541 1667.715 L 2501.923 1538.883 L 2644.439 1621.165 C 2731.707 1504.202 2854.186 1424.901 2988.308 1389.668 C 3122.074 1353.125 3267.788 1360.564 3401.841 1418.22 L 3484.123 1275.703 L 3612.955 1350.085 L 3530.673 1492.601 C 3647.633 1579.867 3726.933 1702.343 3762.168 1836.46 C 3798.714 1970.228 3791.276 2115.947 3733.618 2250.003 L 3876.135 2332.285 L 3801.753 2461.117 L 3659.237 2378.835 C 3571.972 2495.794 3449.498 2575.094 3315.381 2610.329 C 3181.612 2646.876 3035.892 2639.439 2901.835 2581.78 L 2819.553 2724.297 L 2690.721 2649.915 L 2773.003 2507.399 C 2656.042 2420.132 2576.741 2297.655 2541.507 2163.535 Z " fill="rgb(0,0,0)"/><path d=" M 3222.875 2366.616 L 3265.042 2200.929 L 3293.402 2186.195 L 3292.581 2186.195 L 3354.754 1995.282 L 3354.863 1995.371 L 3354.768 1995.24 L 3354.863 1994.949 L 3354.132 1994.356 L 3301.03 1920.663 L 3152.068 1830.389 L 3151.702 1830.092 L 3151.858 1829.965 L 3151.679 1830.073 L 3151.369 1829.821 L 3149.228 1831.559 L 3001.543 1921.04 L 2948.609 1994.354 L 2947.875 1994.949 L 2948.179 1994.949 L 2947.875 1994.949 L 2947.97 1995.24 L 2947.875 1995.371 L 2947.984 1995.283 L 3010.282 2186.581 L 3011.006 2186.581 L 3038.541 2200.886 L 3038.541 2200.886 L 3079.863 2366.616 L 3151.369 2404.08 L 3222.875 2366.616 Z " fill="rgb(255,153,0)"/><path d=" M 2917.408 2003.409 L 2905.244 2071.542 L 2881.308 2043.215 L 2917.408 2003.409 L 2917.408 2003.409 Z " fill="rgb(255,255,255)"/><path d=" M 2854.06 2064.321 L 2873.509 2049.154 L 2897.215 2078.496 L 2897.579 2078.615 L 2858.153 2110.253 L 2853.509 2064.208 L 2853.569 2064.16 L 2854.06 2064.321 L 2854.06 2064.321 Z " fill="rgb(255,255,255)"/><path d=" M 2820.297 2072.521 L 2820.218 2071.415 L 2820.747 2071.375 L 2820.777 2071.299 L 2820.818 2071.37 L 2844.545 2069.611 L 2847.76 2114.709 L 2823.434 2116.513 L 2823.428 2116.437 L 2802.462 2117.923 L 2820.297 2072.521 L 2820.297 2072.521 Z " fill="rgb(255,255,255)"/><path d=" M 2781.614 2056.573 L 2781.651 2056.486 L 2810.732 2068.697 L 2789.761 2117.819 L 2787.546 2116.889 L 2787.549 2116.929 L 2729.387 2092.645 L 2775.393 2053.976 L 2781.614 2056.573 L 2781.614 2056.573 Z " fill="rgb(255,255,255)"/><path d=" M 2746.899 2025.037 L 2767.882 2049.715 L 2721.605 2087.875 L 2697.418 2059.429 L 2697.661 2059.228 L 2667.307 2023.155 L 2733.228 2008.201 L 2747.067 2024.648 L 2746.899 2025.037 L 2746.899 2025.037 Z " fill="rgb(255,255,255)"/><path d=" M 2719.839 1954.751 L 2720.143 1954.68 L 2731.188 2001.166 L 2666.036 2016.291 L 2661.022 1995.19 L 2644.099 1924.452 L 2716.844 1942.231 L 2719.839 1954.751 L 2719.839 1954.751 Z " fill="rgb(255,255,255)"/><path d=" M 2727.45 1895.515 L 2718.481 1931.963 L 2646.616 1914.2 L 2646.126 1914.313 L 2646.18 1914.092 L 2646.059 1914.062 L 2656.405 1872.017 L 2656.595 1872.064 L 2667.377 1828.558 L 2730.561 1883.17 L 2727.505 1895.502 L 2727.45 1895.515 L 2727.45 1895.515 Z " fill="rgb(255,255,255)"/><path d=" M 3317.408 1875.704 L 3317.899 1876.286 L 3362.499 1830.078 L 3278.897 1730.919 L 3278.051 1729.056 L 3186.196 1823.415 L 3297.45 1896.206 L 3317.408 1875.704 L 3317.408 1875.704 Z " fill="rgb(255,255,255)"/><path d=" M 2842.873 1811.056 L 2790.209 1826.836 L 2763.365 1721.792 L 2822.644 1704.03 L 2822.767 1704.51 L 2883.699 1685.647 L 2857.821 1806.648 L 2843.026 1811.228 L 2842.873 1811.056 L 2842.873 1811.056 Z " fill="rgb(255,255,255)"/><path d=" M 2929.674 1824.689 L 2929.316 1826.144 L 2928.588 1825.919 L 2928.493 1826.027 L 2928.376 1825.99 L 2928.343 1825.844 L 2870.036 1807.828 L 2898.818 1691.016 L 2897.886 1686.76 L 2899.726 1687.329 L 2899.816 1686.965 L 2959.095 1705.282 L 2959 1705.667 L 3018.542 1724.087 L 2929.674 1824.689 L 2929.674 1824.689 Z " fill="rgb(255,255,255)"/><path d=" M 2986.268 1875.704 L 2985.777 1876.286 L 2941.178 1830.078 L 3024.78 1730.918 L 3025.626 1729.056 L 3117.481 1823.415 L 3006.227 1896.206 L 2986.268 1875.704 L 2986.268 1875.704 Z " fill="rgb(255,255,255)"/><path d=" M 3386.269 2003.409 L 3398.432 2071.542 L 3422.369 2043.215 L 3386.269 2003.409 L 3386.269 2003.409 Z " fill="rgb(255,255,255)"/><path d=" M 3449.616 2064.321 L 3430.167 2049.154 L 3406.462 2078.496 L 3406.097 2078.615 L 3445.524 2110.253 L 3450.167 2064.208 L 3450.108 2064.16 L 3449.616 2064.321 L 3449.616 2064.321 Z " fill="rgb(255,255,255)"/><path d=" M 3483.38 2072.521 L 3483.459 2071.415 L 3482.93 2071.375 L 3482.899 2071.299 L 3482.859 2071.37 L 3459.132 2069.611 L 3455.916 2114.709 L 3480.243 2116.513 L 3480.248 2116.437 L 3501.214 2117.923 L 3483.38 2072.521 L 3483.38 2072.521 Z " fill="rgb(255,255,255)"/><path d=" M 3522.062 2056.573 L 3522.025 2056.486 L 3492.945 2068.697 L 3513.916 2117.819 L 3516.131 2116.889 L 3516.128 2116.929 L 3574.289 2092.645 L 3528.283 2053.976 L 3522.062 2056.573 L 3522.062 2056.573 Z " fill="rgb(255,255,255)"/><path d=" M 3556.777 2025.037 L 3535.794 2049.715 L 3582.071 2087.875 L 3606.258 2059.429 L 3606.015 2059.228 L 3636.37 2023.155 L 3570.449 2008.201 L 3556.609 2024.648 L 3556.777 2025.037 L 3556.777 2025.037 Z " fill="rgb(255,255,255)"/><path d=" M 3583.838 1954.751 L 3583.534 1954.68 L 3572.489 2001.166 L 3637.64 2016.291 L 3642.661 1995.161 L 3659.577 1924.452 L 3586.833 1942.231 L 3583.838 1954.751 L 3583.838 1954.751 Z " fill="rgb(255,255,255)"/><path d=" M 3576.227 1895.515 L 3585.195 1931.963 L 3657.061 1914.2 L 3657.551 1914.313 L 3657.496 1914.092 L 3657.617 1914.062 L 3647.271 1872.017 L 3647.081 1872.064 L 3636.3 1828.558 L 3573.116 1883.17 L 3576.172 1895.502 L 3576.227 1895.515 L 3576.227 1895.515 Z " fill="rgb(255,255,255)"/><path d=" M 3524.754 1828.133 L 3523.351 1829.37 L 3566.692 1877.105 L 3632.123 1819.38 L 3628.524 1815.416 L 3628.659 1815.397 L 3550.785 1728.948 L 3524.754 1828.133 L 3524.754 1828.133 Z " fill="rgb(255,255,255)"/><path d=" M 3460.804 1811.056 L 3513.468 1826.836 L 3540.312 1721.792 L 3481.032 1704.03 L 3480.91 1704.51 L 3419.978 1685.647 L 3445.855 1806.648 L 3460.65 1811.228 L 3460.804 1811.056 L 3460.804 1811.056 Z " fill="rgb(255,255,255)"/><path d=" M 3374.002 1824.689 L 3374.361 1826.144 L 3375.089 1825.919 L 3375.184 1826.027 L 3375.301 1825.99 L 3375.333 1825.844 L 3433.64 1807.828 L 3404.859 1691.016 L 3405.791 1686.76 L 3403.95 1687.329 L 3403.861 1686.965 L 3344.581 1705.282 L 3344.676 1705.667 L 3285.135 1724.087 L 3374.002 1824.689 L 3374.002 1824.689 Z " fill="rgb(255,255,255)"/><path d=" M 2778.923 1828.133 L 2780.326 1829.37 L 2736.984 1877.105 L 2671.553 1819.38 L 2675.152 1815.416 L 2675.017 1815.397 L 2752.892 1728.948 L 2778.923 1828.133 L 2778.923 1828.133 Z " fill="rgb(255,255,255)"/><path d=" M 3212.186 2213.566 L 3212.605 2288.22 L 3200.022 2214.676 L 3199.603 2140.021 L 3212.186 2213.566 L 3212.186 2213.566 L 3212.186 2213.566 L 3212.186 2213.566 L 3212.186 2213.566 L 3212.186 2213.566 L 3212.186 2213.566 Z " fill="rgb(0,0,0)"/><path d=" M 3191.764 2382.916 L 3185.645 2386.122 L 3185.645 2386.122 L 3155.432 2376.775 L 3191.764 2382.916 L 3191.764 2382.916 L 3191.764 2382.916 L 3191.764 2382.916 L 3191.764 2382.916 L 3191.764 2382.916 Z " fill="rgb(0,0,0)"/><path d=" M 3111.2 2383.035 L 3148.232 2376.775 L 3117.436 2386.302 L 3117.436 2386.302 L 3111.2 2383.035 L 3111.2 2383.035 L 3111.2 2383.035 L 3111.2 2383.035 L 3111.2 2383.035 Z " fill="rgb(0,0,0)"/><path d=" M 3090.038 2216.769 L 3102.621 2143.224 L 3102.202 2217.879 L 3089.619 2291.423 L 3090.038 2216.769 L 3090.038 2216.769 L 3090.038 2216.769 L 3090.038 2216.769 L 3090.038 2216.769 Z " fill="rgb(0,0,0)"/><path d=" M 3213.204 2117.156 L 3273.043 2101.545 L 3282.55 2041.253 L 3213.204 2117.156 L 3213.204 2117.156 L 3213.204 2117.156 L 3213.204 2117.156 Z " fill="rgb(0,0,0)"/><path d=" M 3090.474 2117.121 L 3030.635 2101.51 L 3021.128 2041.218 L 3090.474 2117.121 L 3090.474 2117.121 L 3090.474 2117.121 Z " fill="rgb(0,0,0)"/><path d=" M 3153.752 2357.79 L 3151.679 2373.513 L 3149.917 2357.79 L 3093.534 2316.725 L 3210.136 2316.725 L 3153.752 2357.79 L 3153.752 2357.79 Z " fill="rgb(0,0,0)"/></g><g><g><path d=" M 1553.209 687.427 C 1650.782 588.895 1780.696 522.479 1925.619 505.384 L 1925.619 340.821 L 2074.381 340.821 L 2074.381 505.384 C 2219.308 522.479 2349.224 588.899 2446.798 687.435 C 2545.328 785.008 2611.743 914.92 2628.838 1059.841 L 2793.402 1059.841 L 2793.402 1208.604 L 2628.838 1208.604 C 2611.743 1353.527 2545.326 1483.44 2446.794 1581.013 C 2349.221 1679.547 2219.306 1745.965 2074.381 1763.06 L 2074.381 1927.624 L 1925.618 1927.624 L 1925.618 1763.06 C 1780.697 1745.965 1650.784 1679.55 1553.211 1581.019 C 1454.676 1483.446 1388.257 1353.529 1371.162 1208.604 L 1206.598 1208.604 L 1206.598 1059.841 L 1371.162 1059.841 C 1388.257 914.916 1454.675 785.001 1553.209 687.427 Z " fill="rgb(0,0,0)" stroke-width="20" stroke="rgb(255,153,0)" stroke-linejoin="miter" stroke-linecap="square" stroke-miterlimit="3"/><path d=" M 1389.67 970.682 C 1424.905 836.564 1504.205 714.089 1621.165 626.823 L 1538.883 484.307 L 1667.715 409.926 L 1749.997 552.442 C 1884.055 494.784 2029.775 487.346 2163.545 523.894 C 2297.661 559.129 2420.134 638.429 2507.399 755.387 L 2649.915 673.105 L 2724.297 801.938 L 2581.78 884.22 C 2639.437 1018.274 2646.876 1163.991 2610.331 1297.758 C 2575.097 1431.877 2495.796 1554.354 2378.835 1641.621 L 2461.117 1784.138 L 2332.285 1858.519 L 2250.003 1716.003 C 2115.95 1773.659 1970.234 1781.098 1836.468 1744.554 C 1702.347 1709.321 1579.869 1630.019 1492.601 1513.057 L 1350.085 1595.339 L 1275.703 1466.507 L 1418.22 1384.225 C 1360.562 1250.169 1353.124 1104.45 1389.67 970.682 Z " fill="rgb(0,0,0)" stroke-width="20" stroke="rgb(255,153,0)" stroke-linejoin="miter" stroke-linecap="square" stroke-miterlimit="3"/><path d=" M 1389.669 1297.757 C 1353.124 1163.991 1360.563 1018.274 1418.22 884.219 L 1275.703 801.938 L 1350.085 673.105 L 1492.601 755.387 C 1579.869 638.425 1702.348 559.123 1836.47 523.89 C 1970.235 487.347 2115.95 494.786 2250.003 552.442 L 2332.285 409.925 L 2461.117 484.307 L 2378.835 626.824 C 2495.795 714.089 2575.095 836.565 2610.33 970.683 C 2646.876 1104.451 2639.438 1250.169 2581.78 1384.225 L 2724.297 1466.507 L 2649.915 1595.339 L 2507.399 1513.057 C 2420.134 1630.016 2297.66 1709.316 2163.543 1744.551 C 2029.774 1781.099 1884.054 1773.661 1749.997 1716.003 L 1667.715 1858.519 L 1538.883 1784.138 L 1621.165 1641.621 C 1504.204 1554.354 1424.903 1431.877 1389.669 1297.757 Z " fill="rgb(0,0,0)" stroke-width="20" stroke="rgb(255,153,0)" stroke-linejoin="miter" stroke-linecap="square" stroke-miterlimit="3"/></g><g><path d=" M 1553.209 687.427 C 1650.782 588.895 1780.696 522.479 1925.619 505.384 L 1925.619 340.821 L 2074.381 340.821 L 2074.381 505.384 C 2219.308 522.479 2349.224 588.899 2446.798 687.435 C 2545.328 785.008 2611.743 914.92 2628.838 1059.841 L 2793.402 1059.841 L 2793.402 1208.604 L 2628.838 1208.604 C 2611.743 1353.527 2545.326 1483.44 2446.794 1581.013 C 2349.221 1679.547 2219.306 1745.965 2074.381 1763.06 L 2074.381 1927.624 L 1925.618 1927.624 L 1925.618 1763.06 C 1780.697 1745.965 1650.784 1679.55 1553.211 1581.019 C 1454.676 1483.446 1388.257 1353.529 1371.162 1208.604 L 1206.598 1208.604 L 1206.598 1059.841 L 1371.162 1059.841 C 1388.257 914.916 1454.675 785.001 1553.209 687.427 Z " fill="rgb(0,0,0)"/><path d=" M 1389.67 970.682 C 1424.905 836.564 1504.205 714.089 1621.165 626.823 L 1538.883 484.307 L 1667.715 409.926 L 1749.997 552.442 C 1884.055 494.784 2029.775 487.346 2163.545 523.894 C 2297.661 559.129 2420.134 638.429 2507.399 755.387 L 2649.915 673.105 L 2724.297 801.938 L 2581.78 884.22 C 2639.437 1018.274 2646.876 1163.991 2610.331 1297.758 C 2575.097 1431.877 2495.796 1554.354 2378.835 1641.621 L 2461.117 1784.138 L 2332.285 1858.519 L 2250.003 1716.003 C 2115.95 1773.659 1970.234 1781.098 1836.468 1744.554 C 1702.347 1709.321 1579.869 1630.019 1492.601 1513.057 L 1350.085 1595.339 L 1275.703 1466.507 L 1418.22 1384.225 C 1360.562 1250.169 1353.124 1104.45 1389.67 970.682 Z " fill="rgb(0,0,0)"/><path d=" M 1389.669 1297.757 C 1353.124 1163.991 1360.563 1018.274 1418.22 884.219 L 1275.703 801.938 L 1350.085 673.105 L 1492.601 755.387 C 1579.869 638.425 1702.348 559.123 1836.47 523.89 C 1970.235 487.347 2115.95 494.786 2250.003 552.442 L 2332.285 409.925 L 2461.117 484.307 L 2378.835 626.824 C 2495.795 714.089 2575.095 836.565 2610.33 970.683 C 2646.876 1104.451 2639.438 1250.169 2581.78 1384.225 L 2724.297 1466.507 L 2649.915 1595.339 L 2507.399 1513.057 C 2420.134 1630.016 2297.66 1709.316 2163.543 1744.551 C 2029.774 1781.099 1884.054 1773.661 1749.997 1716.003 L 1667.715 1858.519 L 1538.883 1784.138 L 1621.165 1641.621 C 1504.204 1554.354 1424.903 1431.877 1389.669 1297.757 Z " fill="rgb(0,0,0)"/></g><path d=" M 1785.371 1259 L 1683.289 1308.361 L 1777.557 1237.016 L 1785.371 1259 Z " fill="rgb(255,255,255)"/><path d=" M 1761.975 1181.352 L 1652.849 1214.624 L 1757.692 1158.282 L 1761.975 1181.352 Z " fill="rgb(255,255,255)"/><path d=" M 1776.419 1066.133 L 1650.037 1092.915 L 1776.07 1089.855 L 1776.419 1066.133 Z " fill="rgb(255,255,255)"/><path d=" M 1818.111 989.225 L 1699.387 993.12 L 1811.535 1011.683 L 1818.111 989.225 Z " fill="rgb(255,255,255)"/><path d=" M 2317.87 1409.723 L 2204.008 1439.935 L 2203.738 1439.831 L 2177.21 1503.792 L 2177.055 1503.935 L 2177.051 1504.175 L 2176.912 1504.51 L 2177.045 1504.474 L 2175.185 1602.129 L 2218.165 1493.495 L 2291.24 1473.984 L 2290.98 1474.613 L 2291.824 1473.921 L 2291.863 1473.937 L 2291.893 1473.864 L 2354.33 1422.686 L 2318.224 1408.87 L 2317.87 1409.723 Z " fill="rgb(255,255,255)"/><path d=" M 2369.591 1461.035 L 2322.957 1558.193 L 2323.013 1558.375 L 2323.406 1558.262 L 2268.082 1593.931 L 2202.274 1592.944 L 2263.132 1575.519 L 2299.144 1482.401 L 2298.543 1482.584 L 2299.29 1481.932 L 2299.265 1481.849 L 2299.45 1481.793 L 2359.888 1429.151 L 2369.55 1460.642 L 2369.819 1460.561 L 2369.639 1460.935 L 2369.664 1461.013 L 2369.591 1461.035 Z " fill="rgb(255,255,255)"/><path d=" M 1680.869 1409.723 L 1794.732 1439.935 L 1795.002 1439.831 L 1821.53 1503.793 L 1821.684 1503.935 L 1821.689 1504.175 L 1821.828 1504.51 L 1821.695 1504.474 L 1823.555 1602.129 L 1780.575 1493.495 L 1707.5 1473.984 L 1707.76 1474.613 L 1706.916 1473.921 L 1706.877 1473.937 L 1706.847 1473.864 L 1644.409 1422.686 L 1680.516 1408.87 L 1680.869 1409.723 Z " fill="rgb(255,255,255)"/><path d=" M 1629.149 1461.035 L 1675.783 1558.193 L 1675.727 1558.375 L 1675.334 1558.262 L 1730.658 1593.931 L 1796.466 1592.944 L 1735.608 1575.519 L 1699.596 1482.401 L 1700.197 1482.584 L 1699.45 1481.932 L 1699.475 1481.849 L 1699.29 1481.793 L 1638.852 1429.151 L 1629.19 1460.642 L 1628.921 1460.561 L 1629.1 1460.935 L 1629.076 1461.013 L 1629.149 1461.035 Z " fill="rgb(255,255,255)"/><path d=" M 2213.057 1259 L 2315.139 1308.36 L 2220.871 1237.016 L 2213.057 1259 Z " fill="rgb(255,255,255)"/><path d=" M 2236.453 1181.352 L 2345.579 1214.624 L 2240.736 1158.282 L 2236.453 1181.352 Z " fill="rgb(255,255,255)"/><path d=" M 2222.009 1066.133 L 2348.391 1092.915 L 2222.358 1089.855 L 2222.009 1066.133 Z " fill="rgb(255,255,255)"/><path d=" M 2180.318 989.225 L 2299.041 993.12 L 2186.894 1011.683 L 2180.318 989.225 Z " fill="rgb(255,255,255)"/><path d=" M 2007.897 802.632 L 2011.008 794.373 L 1987.642 771.959 L 1943.039 768.658 L 1990.817 754.441 L 2040.052 777.237 L 2047.791 826.788 L 2023.506 867.326 L 2023.271 866.775 L 2023.177 867.349 L 1988.074 886.409 L 1950.827 870.279 L 1939.485 831.106 L 1962.588 798.388 L 2002.739 796.762 L 2007.897 802.632 Z " fill="rgb(255,255,255)"/><path d=" M 2062.611 1327.711 Q 2062.844 1328.095 2079.926 1356.121 L 2079.742 1356.273 L 2084.669 1363.879 L 2041.033 1380.163 L 2063.221 1357.459 L 2054.509 1349.625 L 2014.444 1349.625 L 2023.3 1366.008 L 2002.916 1349.625 L 1995.797 1349.625 L 1975.413 1366.008 L 1984.268 1349.625 L 1944.22 1349.625 L 1935.508 1357.459 L 1957.696 1380.163 L 1914.06 1363.879 L 1918.988 1356.273 L 1918.803 1356.121 Q 1936.12 1327.717 1936.128 1327.705 L 1936.009 1327.705 L 1936.009 1327.705 L 1886.948 1177.274 L 1943.158 1004.923 L 2055.577 1004.923 L 2111.786 1177.274 L 2062.724 1327.711 L 2062.611 1327.711 Z " fill="rgb(255,153,0)"/><path d=" M 1816.967 1013.183 L 1903.098 1070.648 L 1903.147 1070.567 L 1909.605 1074.869 L 1919.841 1043.181 L 1920.061 1042.82 L 1823.629 990.432 L 1816.967 1013.183 L 1816.967 1013.183 L 1816.967 1013.183 Z " fill="rgb(255,153,0)"/><path d=" M 2277.156 1352.488 L 2202.773 1320.303 L 2177.547 1360.981 L 2248.105 1419.31 L 2248.349 1418.915 L 2321.355 1397.851 L 2299.73 1362.14 L 2277.18 1352.433 L 2277.156 1352.488 L 2277.156 1352.488 L 2277.156 1352.488 Z " fill="rgb(255,153,0)"/><path d=" M 1839.749 765.711 L 1875.295 844.418 L 1901.564 818.977 L 1894.244 770.376 L 1839.749 765.711 L 1839.749 765.711 L 1839.749 765.711 Z " fill="rgb(255,153,0)"/><path d=" M 2089.083 715.568 L 1957.945 666.315 L 1967.674 724.613 L 2050.185 747.209 L 2089.083 715.568 L 2089.083 715.568 L 2089.083 715.568 Z " fill="rgb(255,153,0)"/><path d=" M 2128.765 875.275 L 2051.862 998.784 L 1948.95 998.896 L 2069.482 866.807 L 2128.765 875.275 L 2128.765 875.275 L 2128.765 875.275 Z " fill="rgb(255,153,0)"/><path d=" M 2129.097 869.232 L 2092.846 720.56 L 2052.362 753.492 L 2070.147 860.812 L 2129.097 869.232 L 2129.097 869.232 L 2129.097 869.232 Z " fill="rgb(255,153,0)"/><path d=" M 1790.654 1257.027 L 1894.524 1254.278 L 1894.517 1254.183 L 1902.288 1253.973 L 1892.165 1222.25 L 1892.134 1221.829 L 1782.709 1234.676 L 1790.654 1257.027 L 1790.654 1257.027 L 1790.654 1257.027 Z " fill="rgb(255,153,0)"/><path d=" M 1767.706 1180.495 L 1869.974 1193.63 L 1869.981 1193.55 L 1884.053 1195.496 L 1877.841 1177.051 L 1882.984 1161.678 L 1869.283 1160.976 L 1869.331 1161.076 L 1763.366 1157.118 L 1767.706 1180.495 L 1767.706 1180.495 L 1767.706 1180.495 Z " fill="rgb(255,153,0)"/><path d=" M 1782.118 1066.563 L 1902.528 1099.719 L 1892.408 1130.584 L 1781.767 1090.455 L 1782.118 1066.563 L 1782.118 1066.563 L 1782.118 1066.563 Z " fill="rgb(255,153,0)"/><path d=" M 1879.851 848.514 L 1945.508 868.525 L 1935.403 833.207 L 1905.087 824.072 L 1879.851 848.514 L 1879.851 848.514 L 1879.851 848.514 Z " fill="rgb(255,153,0)"/><path d=" M 2077.879 1299.253 L 2078.032 1298.365 L 2183.863 1315.988 L 2183.861 1315.998 L 2197.281 1318.19 L 2172.259 1357.044 L 2172.153 1357.697 L 2171.898 1357.604 L 2171.496 1358.229 L 2171.611 1357.5 L 2080.697 1324.458 L 2069.837 1320.9 L 2077.771 1298.484 L 2077.879 1299.253 L 2077.879 1299.253 L 2077.879 1299.253 Z " fill="rgb(255,153,0)"/><path d=" M 1951.803 666.41 L 1842.197 759.858 L 1896.853 764.537 L 1961.712 725.783 L 1951.803 666.41 L 1951.803 666.41 L 1951.803 666.41 Z " fill="rgb(255,153,0)"/><path d=" M 1920.861 1299.252 L 1920.708 1298.365 L 1814.877 1315.988 L 1814.879 1315.998 L 1801.459 1318.19 L 1826.481 1357.044 L 1826.587 1357.697 L 1826.841 1357.604 L 1827.244 1358.229 L 1827.129 1357.5 L 1918.043 1324.459 L 1928.903 1320.9 L 1920.969 1298.484 L 1920.861 1299.252 L 1920.861 1299.252 L 1920.861 1299.252 Z " fill="rgb(255,153,0)"/><path d=" M 1721.584 1352.487 L 1795.967 1320.303 L 1821.193 1360.981 L 1750.635 1419.31 L 1750.39 1418.915 L 1677.384 1397.851 L 1699.01 1362.14 L 1721.561 1352.433 L 1721.584 1352.487 L 1721.584 1352.487 L 1721.584 1352.487 Z " fill="rgb(255,153,0)"/><path d=" M 2207.774 1257.027 L 2103.905 1254.278 L 2103.912 1254.183 L 2096.14 1253.973 L 2106.264 1222.249 L 2106.295 1221.829 L 2215.719 1234.676 L 2207.774 1257.027 L 2207.774 1257.027 L 2207.774 1257.027 Z " fill="rgb(255,153,0)"/><path d=" M 2128.454 1193.629 L 2128.448 1193.551 L 2114.376 1195.496 L 2120.587 1177.051 L 2115.444 1161.678 L 2129.145 1160.976 L 2129.097 1161.076 L 2235.062 1157.119 L 2230.722 1180.495 L 2128.454 1193.629 L 2128.454 1193.629 Z " fill="rgb(255,153,0)"/><path d=" M 2216.31 1066.563 L 2095.9 1099.719 L 2106.021 1130.584 L 2216.661 1090.455 L 2216.31 1066.563 L 2216.31 1066.563 L 2216.31 1066.563 Z " fill="rgb(255,153,0)"/><path d=" M 2181.461 1013.183 L 2095.331 1070.648 L 2095.281 1070.567 L 2088.823 1074.869 L 2078.587 1043.181 L 2078.367 1042.82 L 2174.799 990.432 L 2181.461 1013.183 L 2181.461 1013.183 L 2181.461 1013.183 Z " fill="rgb(255,153,0)"/></g></g></svg>