<svg xmlns="http://www.w3.org/2000/svg" width="1100" height="1100"><g transform="translate(-460 -2750)">&gt;<g xmlns="http://www.w3.org/2000/svg"><path d=" M 1067.833 3578.598 L 1097.459 3462.187 L 1117.385 3451.835 L 1116.808 3451.835 L 1160.49 3317.701 L 1160.566 3317.763 L 1160.5 3317.671 L 1160.566 3317.467 L 1160.053 3317.05 L 1122.744 3265.274 L 1018.084 3201.848 L 1017.827 3201.639 L 1017.937 3201.55 L 1017.811 3201.626 L 1017.593 3201.449 L 1016.089 3202.67 L 912.327 3265.538 L 875.135 3317.048 L 874.62 3317.467 L 874.833 3317.467 L 874.62 3317.467 L 874.686 3317.671 L 874.62 3317.763 L 874.696 3317.701 L 918.466 3452.106 L 918.975 3452.106 L 938.321 3462.157 L 938.321 3462.157 L 967.353 3578.598 L 1017.593 3604.92 L 1067.833 3578.598 Z " fill="rgb(255,153,0)"/><path d=" M 853.213 3323.411 L 844.667 3371.28 L 827.85 3351.378 L 853.213 3323.411 L 853.213 3323.411 Z " fill="rgb(0,0,0)"/><path d=" M 808.706 3366.207 L 822.37 3355.551 L 839.026 3376.166 L 839.282 3376.25 L 811.581 3398.479 L 808.319 3366.128 L 808.361 3366.094 L 808.706 3366.207 L 808.706 3366.207 Z " fill="rgb(0,0,0)"/><path d=" M 784.984 3371.968 L 784.928 3371.191 L 785.3 3371.163 L 785.321 3371.109 L 785.35 3371.16 L 802.02 3369.923 L 804.28 3401.609 L 787.188 3402.876 L 787.184 3402.823 L 772.453 3403.867 L 784.984 3371.968 L 784.984 3371.968 Z " fill="rgb(0,0,0)"/><path d=" M 757.806 3360.763 L 757.832 3360.702 L 778.264 3369.282 L 763.529 3403.795 L 761.973 3403.141 L 761.975 3403.169 L 721.112 3386.108 L 753.435 3358.938 L 757.806 3360.763 L 757.806 3360.763 Z " fill="rgb(0,0,0)"/><path d=" M 733.415 3338.606 L 748.158 3355.945 L 715.644 3382.756 L 698.65 3362.77 L 698.821 3362.629 L 677.494 3337.284 L 723.81 3326.778 L 733.533 3338.333 L 733.415 3338.606 L 733.415 3338.606 Z " fill="rgb(0,0,0)"/><path d=" M 714.403 3289.224 L 714.616 3289.174 L 722.376 3321.835 L 676.601 3332.461 L 673.079 3317.636 L 661.189 3267.936 L 712.298 3280.428 L 714.403 3289.224 L 714.403 3289.224 Z " fill="rgb(0,0,0)"/><path d=" M 719.75 3247.605 L 713.449 3273.213 L 662.957 3260.733 L 662.612 3260.813 L 662.651 3260.657 L 662.566 3260.636 L 669.835 3231.096 L 669.968 3231.129 L 677.543 3200.561 L 721.936 3238.932 L 719.789 3247.596 L 719.75 3247.605 L 719.75 3247.605 Z " fill="rgb(0,0,0)"/><path d=" M 1134.251 3233.686 L 1134.596 3234.095 L 1165.931 3201.63 L 1107.193 3131.961 L 1106.599 3130.652 L 1042.062 3196.948 L 1120.228 3248.091 L 1134.251 3233.686 L 1134.251 3233.686 Z " fill="rgb(0,0,0)"/><path d=" M 800.846 3188.265 L 763.844 3199.351 L 744.984 3125.548 L 786.633 3113.069 L 786.719 3113.406 L 829.53 3100.153 L 811.348 3185.167 L 800.953 3188.385 L 800.846 3188.265 L 800.846 3188.265 Z " fill="rgb(0,0,0)"/><path d=" M 861.832 3197.843 L 861.58 3198.866 L 861.068 3198.707 L 861.002 3198.783 L 860.919 3198.757 L 860.897 3198.654 L 819.93 3185.996 L 840.152 3103.925 L 839.497 3100.935 L 840.79 3101.335 L 840.853 3101.079 L 882.503 3113.948 L 882.436 3114.219 L 924.27 3127.161 L 861.832 3197.843 L 861.832 3197.843 Z " fill="rgb(0,0,0)"/><path d=" M 901.594 3233.686 L 901.249 3234.095 L 869.914 3201.63 L 928.653 3131.96 L 929.247 3130.652 L 993.783 3196.948 L 915.617 3248.091 L 901.594 3233.686 L 901.594 3233.686 Z " fill="rgb(0,0,0)"/><path d=" M 1182.632 3323.411 L 1191.178 3371.28 L 1207.996 3351.378 L 1182.632 3323.411 L 1182.632 3323.411 Z " fill="rgb(0,0,0)"/><path d=" M 1227.14 3366.207 L 1213.475 3355.551 L 1196.82 3376.166 L 1196.564 3376.25 L 1224.264 3398.479 L 1227.527 3366.128 L 1227.485 3366.094 L 1227.14 3366.207 L 1227.14 3366.207 Z " fill="rgb(0,0,0)"/><path d=" M 1250.862 3371.969 L 1250.917 3371.191 L 1250.545 3371.163 L 1250.524 3371.109 L 1250.496 3371.16 L 1233.825 3369.923 L 1231.566 3401.609 L 1248.658 3402.876 L 1248.662 3402.823 L 1263.392 3403.867 L 1250.862 3371.969 L 1250.862 3371.969 Z " fill="rgb(0,0,0)"/><path d=" M 1278.04 3360.763 L 1278.014 3360.702 L 1257.582 3369.282 L 1272.316 3403.795 L 1273.872 3403.141 L 1273.871 3403.169 L 1314.734 3386.108 L 1282.411 3358.938 L 1278.04 3360.763 L 1278.04 3360.763 Z " fill="rgb(0,0,0)"/><path d=" M 1302.43 3338.606 L 1287.688 3355.945 L 1320.202 3382.756 L 1337.195 3362.77 L 1337.025 3362.629 L 1358.352 3337.284 L 1312.036 3326.778 L 1302.312 3338.333 L 1302.43 3338.606 L 1302.43 3338.606 Z " fill="rgb(0,0,0)"/><path d=" M 1321.443 3289.224 L 1321.229 3289.174 L 1313.469 3321.835 L 1359.244 3332.461 L 1362.772 3317.616 L 1374.657 3267.936 L 1323.547 3280.428 L 1321.443 3289.224 L 1321.443 3289.224 Z " fill="rgb(0,0,0)"/><path d=" M 1316.095 3247.605 L 1322.397 3273.213 L 1372.889 3260.733 L 1373.233 3260.813 L 1373.195 3260.657 L 1373.28 3260.636 L 1366.011 3231.096 L 1365.877 3231.129 L 1358.302 3200.561 L 1313.91 3238.932 L 1316.057 3247.596 L 1316.095 3247.605 L 1316.095 3247.605 Z " fill="rgb(0,0,0)"/><path d=" M 1279.931 3200.263 L 1278.945 3201.132 L 1309.396 3234.67 L 1355.368 3194.113 L 1352.839 3191.328 L 1352.934 3191.315 L 1298.22 3130.576 L 1279.931 3200.263 L 1279.931 3200.263 Z " fill="rgb(0,0,0)"/><path d=" M 1017.348 2789.361 L 510.581 3292.333 L 1017.348 3795.304 L 1524.115 3292.333 L 1017.348 2789.361 L 1017.348 2789.361 Z " fill="none" stroke-width="10" stroke="rgb(255,153,0)" stroke-linejoin="miter" stroke-linecap="square" stroke-miterlimit="3"/><path d=" M 1060.078 3473.627 L 1060.373 3526.079 L 1051.532 3474.407 L 1051.237 3421.955 L 1060.078 3473.627 L 1060.078 3473.627 L 1060.078 3473.627 L 1060.078 3473.627 L 1060.078 3473.627 L 1060.078 3473.627 L 1060.078 3473.627 Z  M 1045.73 3592.611 L 1041.431 3594.863 L 1041.431 3594.863 L 1020.203 3588.296 L 1045.73 3592.611 L 1045.73 3592.611 L 1045.73 3592.611 L 1045.73 3592.611 L 1045.73 3592.611 L 1045.73 3592.611 Z  M 989.126 3592.694 L 1015.144 3588.296 L 993.507 3594.99 L 993.507 3594.99 L 989.126 3592.694 L 989.126 3592.694 L 989.126 3592.694 L 989.126 3592.694 L 989.126 3592.694 Z  M 974.258 3475.877 L 983.099 3424.205 L 982.804 3476.657 L 973.963 3528.329 L 974.258 3475.877 L 974.258 3475.877 L 974.258 3475.877 L 974.258 3475.877 L 974.258 3475.877 Z  M 1060.793 3405.89 L 1102.835 3394.922 L 1109.515 3352.561 L 1060.793 3405.89 L 1060.793 3405.89 L 1060.793 3405.89 L 1060.793 3405.89 Z  M 974.564 3405.865 L 932.521 3394.897 L 925.842 3352.536 L 974.564 3405.865 L 974.564 3405.865 L 974.564 3405.865 Z  M 1019.023 3574.957 L 1017.566 3586.005 L 1016.328 3574.957 L 976.714 3546.105 L 1058.637 3546.105 L 1019.023 3574.957 L 1019.023 3574.957 Z " fill-rule="evenodd" fill="rgb(255,255,255)"/><path d=" M 1235 3188.265 L 1272.002 3199.351 L 1290.862 3125.548 L 1249.212 3113.069 L 1249.126 3113.406 L 1206.316 3100.153 L 1224.497 3185.167 L 1234.892 3188.385 L 1235 3188.265 L 1235 3188.265 Z " fill="rgb(0,0,0)"/><path d=" M 1174.014 3197.843 L 1174.266 3198.866 L 1174.777 3198.707 L 1174.844 3198.783 L 1174.926 3198.757 L 1174.949 3198.654 L 1215.915 3185.996 L 1195.693 3103.925 L 1196.348 3100.935 L 1195.055 3101.335 L 1194.992 3101.079 L 1153.343 3113.948 L 1153.409 3114.219 L 1111.576 3127.161 L 1174.014 3197.843 L 1174.014 3197.843 Z " fill="rgb(0,0,0)"/><path d=" M 755.915 3200.263 L 756.9 3201.132 L 726.449 3234.67 L 680.478 3194.113 L 683.006 3191.328 L 682.912 3191.315 L 737.626 3130.576 L 755.915 3200.263 L 755.915 3200.263 Z " fill="rgb(0,0,0)"/><path d=" M 1060.323 3471.065 L 1060.617 3523.517 L 1051.777 3471.845 L 1051.482 3419.393 L 1060.323 3471.065 L 1060.323 3471.065 L 1060.323 3471.065 L 1060.323 3471.065 L 1060.323 3471.065 L 1060.323 3471.065 L 1060.323 3471.065 Z " fill="rgb(255,255,255)"/><path d=" M 1045.974 3590.05 L 1041.675 3592.302 L 1041.675 3592.302 L 1020.448 3585.735 L 1045.974 3590.05 L 1045.974 3590.05 L 1045.974 3590.05 L 1045.974 3590.05 L 1045.974 3590.05 L 1045.974 3590.05 Z " fill="rgb(255,255,255)"/><path d=" M 989.371 3590.133 L 1015.389 3585.735 L 993.752 3592.429 L 993.752 3592.429 L 989.371 3590.133 L 989.371 3590.133 L 989.371 3590.133 L 989.371 3590.133 L 989.371 3590.133 Z " fill="rgb(255,255,255)"/><path d=" M 974.503 3473.316 L 983.343 3421.644 L 983.049 3474.096 L 974.208 3525.768 L 974.503 3473.316 L 974.503 3473.316 L 974.503 3473.316 L 974.503 3473.316 L 974.503 3473.316 Z " fill="rgb(255,255,255)"/><path d=" M 1061.038 3403.329 L 1103.08 3392.361 L 1109.76 3349.999 L 1061.038 3403.329 L 1061.038 3403.329 L 1061.038 3403.329 L 1061.038 3403.329 Z " fill="rgb(255,255,255)"/><path d=" M 974.808 3403.304 L 932.766 3392.336 L 926.087 3349.975 L 974.808 3403.304 L 974.808 3403.304 L 974.808 3403.304 Z " fill="rgb(255,255,255)"/><path d=" M 1019.267 3572.396 L 1017.811 3583.444 L 1016.573 3572.396 L 976.959 3543.544 L 1058.882 3543.544 L 1019.267 3572.396 L 1019.267 3572.396 Z " fill="rgb(255,255,255)"/></g></g></svg>