<svg xmlns="http://www.w3.org/2000/svg" class="teamSelector" viewBox="0,0,940,940"><g transform="translate(-550 -1850)"><title>Scorpio</title><circle cx="1015" cy="2322" r="427" stroke="none" stroke-width="10" fill="transparent"></circle><path d=" M 586.431 2323.69 C 586.431 2087.483 779.359 1896 1017.348 1896 C 1131.635 1896 1241.24 1941.06 1322.053 2021.267 C 1402.865 2101.475 1448.265 2210.259 1448.265 2323.69 C 1448.265 2559.896 1255.337 2751.38 1017.348 2751.38 C 779.359 2751.38 586.431 2559.896 586.431 2323.69 L 586.431 2323.69 Z " fill="none" stroke-width="10" stroke="rgb(255,153,0)" stroke-linejoin="miter" stroke-linecap="square" stroke-miterlimit="3"></path><path d=" M 847.343 2398.098 L 766.246 2437.311 L 841.135 2380.633 L 847.343 2398.098 Z  M 828.756 2336.412 L 742.063 2362.844 L 825.353 2318.084 L 828.756 2336.412 Z  M 840.231 2244.878 L 739.829 2266.155 L 839.954 2263.724 L 840.231 2244.878 Z  M 873.352 2183.78 L 779.034 2186.875 L 868.128 2201.621 L 873.352 2183.78 Z  M 1270.377 2517.836 L 1179.921 2541.838 L 1179.706 2541.755 L 1158.631 2592.568 L 1158.509 2592.682 L 1158.505 2592.873 L 1158.395 2593.138 L 1158.501 2593.11 L 1157.023 2670.69 L 1191.167 2584.388 L 1249.221 2568.888 L 1249.014 2569.388 L 1249.684 2568.838 L 1249.716 2568.85 L 1249.74 2568.793 L 1299.342 2528.135 L 1270.658 2517.159 L 1270.377 2517.836 Z  M 1311.465 2558.601 L 1274.418 2635.786 L 1274.462 2635.93 L 1274.774 2635.841 L 1230.823 2664.177 L 1178.543 2663.393 L 1226.891 2649.55 L 1255.5 2575.574 L 1255.022 2575.719 L 1255.616 2575.202 L 1255.596 2575.136 L 1255.743 2575.092 L 1303.757 2533.271 L 1311.432 2558.289 L 1311.646 2558.224 L 1311.504 2558.521 L 1311.523 2558.583 L 1311.465 2558.601 Z  M 764.323 2517.836 L 854.779 2541.838 L 854.994 2541.755 L 876.069 2592.569 L 876.191 2592.682 L 876.195 2592.872 L 876.305 2593.138 L 876.199 2593.11 L 877.677 2670.69 L 843.532 2584.388 L 785.479 2568.888 L 785.686 2569.388 L 785.016 2568.838 L 784.984 2568.85 L 784.961 2568.793 L 735.358 2528.135 L 764.042 2517.159 L 764.323 2517.836 Z  M 723.235 2558.601 L 760.282 2635.786 L 760.238 2635.93 L 759.925 2635.841 L 803.877 2664.177 L 856.156 2663.393 L 807.809 2649.55 L 779.2 2575.574 L 779.678 2575.719 L 779.084 2575.202 L 779.104 2575.136 L 778.957 2575.092 L 730.943 2533.271 L 723.268 2558.289 L 723.054 2558.224 L 723.196 2558.521 L 723.177 2558.583 L 723.235 2558.601 Z  M 1187.11 2398.098 L 1268.207 2437.311 L 1193.318 2380.633 L 1187.11 2398.098 Z  M 1205.696 2336.412 L 1292.389 2362.844 L 1209.099 2318.085 L 1205.696 2336.412 Z  M 1201.143 2335.73 M 1194.221 2244.878 L 1294.623 2266.155 L 1194.499 2263.723 L 1194.221 2244.878 Z  M 1161.101 2183.78 L 1255.418 2186.875 L 1166.325 2201.621 L 1161.101 2183.78 Z  M 1024.124 2035.545 L 1026.596 2028.983 L 1008.033 2011.177 L 972.599 2008.555 L 1010.555 1997.261 L 1049.669 2015.37 L 1055.817 2054.735 L 1036.525 2086.94 L 1036.338 2086.502 L 1036.263 2086.958 L 1008.376 2102.1 L 978.786 2089.286 L 969.776 2058.165 L 988.129 2032.173 L 1020.027 2030.881 L 1024.124 2035.545 Z " fill-rule="evenodd" fill="rgb(0,0,0)"></path><path d=" M 847.671 2398.098 L 766.574 2437.311 L 841.463 2380.633 L 847.671 2398.098 Z " fill="rgb(0,0,0)"></path><path d=" M 829.085 2336.412 L 742.392 2362.844 L 825.682 2318.084 L 829.085 2336.412 Z " fill="rgb(0,0,0)"></path><path d=" M 840.56 2244.878 L 740.158 2266.155 L 840.282 2263.724 L 840.56 2244.878 Z " fill="rgb(0,0,0)"></path><path d=" M 873.68 2183.78 L 779.363 2186.875 L 868.456 2201.621 L 873.68 2183.78 Z " fill="rgb(0,0,0)"></path><path d=" M 1270.705 2517.836 L 1180.249 2541.838 L 1180.035 2541.755 L 1158.96 2592.568 L 1158.837 2592.682 L 1158.834 2592.873 L 1158.724 2593.138 L 1158.829 2593.11 L 1157.352 2670.69 L 1191.496 2584.388 L 1249.549 2568.888 L 1249.342 2569.388 L 1250.013 2568.838 L 1250.044 2568.85 L 1250.068 2568.793 L 1299.67 2528.135 L 1270.986 2517.159 L 1270.705 2517.836 Z " fill="rgb(0,0,0)"></path><path d=" M 1311.794 2558.601 L 1274.746 2635.786 L 1274.791 2635.93 L 1275.103 2635.841 L 1231.152 2664.177 L 1178.872 2663.393 L 1227.22 2649.55 L 1255.828 2575.574 L 1255.351 2575.719 L 1255.945 2575.202 L 1255.924 2575.136 L 1256.072 2575.092 L 1304.085 2533.271 L 1311.761 2558.289 L 1311.975 2558.224 L 1311.832 2558.521 L 1311.851 2558.583 L 1311.794 2558.601 Z " fill="rgb(0,0,0)"></path><path d=" M 764.652 2517.836 L 855.108 2541.838 L 855.322 2541.755 L 876.397 2592.569 L 876.52 2592.682 L 876.523 2592.872 L 876.633 2593.138 L 876.528 2593.11 L 878.005 2670.69 L 843.861 2584.388 L 785.808 2568.888 L 786.015 2569.388 L 785.344 2568.838 L 785.313 2568.85 L 785.289 2568.793 L 735.687 2528.135 L 764.371 2517.159 L 764.652 2517.836 Z " fill="rgb(0,0,0)"></path><path d=" M 723.563 2558.601 L 760.611 2635.786 L 760.566 2635.93 L 760.254 2635.841 L 804.205 2664.177 L 856.485 2663.393 L 808.137 2649.55 L 779.529 2575.574 L 780.006 2575.719 L 779.412 2575.202 L 779.433 2575.136 L 779.285 2575.092 L 731.272 2533.271 L 723.596 2558.289 L 723.382 2558.224 L 723.525 2558.521 L 723.506 2558.583 L 723.563 2558.601 Z " fill="rgb(0,0,0)"></path><path d=" M 1187.438 2398.098 L 1268.535 2437.311 L 1193.646 2380.633 L 1187.438 2398.098 Z " fill="rgb(0,0,0)"></path><path d=" M 1206.025 2336.412 L 1292.718 2362.844 L 1209.428 2318.085 L 1206.025 2336.412 Z " fill="rgb(0,0,0)"></path><path d=" M 1194.55 2244.878 L 1294.952 2266.155 L 1194.827 2263.723 L 1194.55 2244.878 Z " fill="rgb(0,0,0)"></path><path d=" M 1161.429 2183.78 L 1255.747 2186.875 L 1166.653 2201.621 L 1161.429 2183.78 Z " fill="rgb(0,0,0)"></path><path d=" M 1024.453 2035.545 L 1026.924 2028.983 L 1008.362 2011.177 L 972.927 2008.555 L 1010.884 1997.261 L 1049.998 2015.37 L 1056.146 2054.735 L 1036.853 2086.94 L 1036.666 2086.502 L 1036.592 2086.958 L 1008.705 2102.1 L 979.115 2089.286 L 970.104 2058.165 L 988.458 2032.173 L 1020.355 2030.881 L 1024.453 2035.545 Z " fill="rgb(0,0,0)"></path><path d=" M 1067.919 2452.684 Q 1068.104 2452.989 1081.675 2475.253 L 1081.528 2475.375 L 1085.443 2481.417 L 1050.777 2494.353 L 1068.404 2476.317 L 1061.482 2470.093 L 1029.654 2470.093 L 1036.689 2483.108 L 1020.496 2470.093 L 1014.84 2470.093 L 998.647 2483.108 L 1005.681 2470.093 L 973.866 2470.093 L 966.945 2476.317 L 984.572 2494.353 L 949.906 2481.417 L 953.82 2475.374 L 953.674 2475.253 Q 967.431 2452.689 967.437 2452.679 L 967.343 2452.679 L 967.343 2452.679 L 928.367 2333.172 L 973.022 2196.251 L 1062.331 2196.251 L 1106.985 2333.172 L 1068.009 2452.684 L 1067.919 2452.684 Z  M 872.772 2202.813 L 941.197 2248.465 L 941.236 2248.4 L 946.367 2251.819 L 954.498 2226.644 L 954.673 2226.358 L 878.064 2184.739 L 872.772 2202.813 L 872.772 2202.813 L 872.772 2202.813 Z  M 1238.36 2472.367 L 1179.268 2446.799 L 1159.228 2479.114 L 1215.281 2525.453 L 1215.476 2525.139 L 1273.474 2508.405 L 1256.294 2480.036 L 1238.379 2472.324 L 1238.36 2472.367 L 1238.36 2472.367 L 1238.36 2472.367 Z  M 890.871 2006.214 L 919.11 2068.741 L 939.978 2048.53 L 934.163 2009.92 L 890.871 2006.214 L 890.871 2006.214 L 890.871 2006.214 Z  M 1088.949 1966.378 L 984.769 1927.25 L 992.498 1973.564 L 1058.048 1991.515 L 1088.949 1966.378 L 1088.949 1966.378 L 1088.949 1966.378 Z  M 1120.474 2093.255 L 1059.38 2191.374 L 977.623 2191.463 L 1073.377 2086.528 L 1120.474 2093.255 L 1120.474 2093.255 L 1120.474 2093.255 Z  M 1120.738 2088.454 L 1091.939 1970.344 L 1059.777 1996.506 L 1073.906 2081.765 L 1120.738 2088.454 L 1120.738 2088.454 L 1120.738 2088.454 Z  M 851.868 2396.531 L 934.385 2394.346 L 934.38 2394.271 L 940.554 2394.104 L 932.511 2368.902 L 932.487 2368.568 L 845.557 2378.774 L 851.868 2396.531 L 851.868 2396.531 L 851.868 2396.531 Z  M 833.638 2335.73 L 914.883 2346.166 L 914.888 2346.103 L 926.067 2347.648 L 921.132 2332.995 L 925.218 2320.782 L 914.333 2320.224 L 914.372 2320.304 L 830.19 2317.16 L 833.638 2335.73 L 833.638 2335.73 L 833.638 2335.73 Z  M 845.087 2245.219 L 940.744 2271.56 L 932.704 2296.08 L 844.808 2264.2 L 845.087 2245.219 L 845.087 2245.219 L 845.087 2245.219 Z  M 922.729 2071.995 L 974.889 2087.892 L 966.861 2059.834 L 942.778 2052.578 L 922.729 2071.995 L 922.729 2071.995 L 922.729 2071.995 Z  M 1080.048 2430.076 L 1080.17 2429.37 L 1164.246 2443.371 L 1164.244 2443.378 L 1174.905 2445.12 L 1155.027 2475.987 L 1154.943 2476.505 L 1154.74 2476.432 L 1154.421 2476.928 L 1154.512 2476.349 L 1082.287 2450.1 L 1073.66 2447.273 L 1079.963 2429.465 L 1080.048 2430.076 L 1080.048 2430.076 L 1080.048 2430.076 Z  M 979.89 1927.325 L 892.816 2001.564 L 936.236 2005.281 L 987.761 1974.494 L 979.89 1927.325 L 979.89 1927.325 L 979.89 1927.325 Z  M 955.309 2430.075 L 955.187 2429.37 L 871.111 2443.371 L 871.113 2443.378 L 860.452 2445.12 L 880.33 2475.987 L 880.414 2476.505 L 880.616 2476.432 L 880.936 2476.928 L 880.845 2476.349 L 953.07 2450.1 L 961.697 2447.273 L 955.394 2429.465 L 955.309 2430.075 L 955.309 2430.075 L 955.309 2430.075 Z  M 796.997 2472.367 L 856.089 2446.799 L 876.129 2479.114 L 820.076 2525.453 L 819.881 2525.139 L 761.883 2508.405 L 779.063 2480.036 L 796.978 2472.324 L 796.997 2472.367 L 796.997 2472.367 L 796.997 2472.367 Z  M 1183.241 2396.53 L 1100.724 2394.346 L 1100.73 2394.271 L 1094.556 2394.104 L 1102.598 2368.902 L 1102.623 2368.568 L 1189.553 2378.774 L 1183.241 2396.53 L 1183.241 2396.53 L 1183.241 2396.53 Z  M 1120.227 2346.165 L 1120.222 2346.103 L 1109.043 2347.648 L 1113.977 2332.995 L 1109.892 2320.782 L 1120.776 2320.225 L 1120.738 2320.304 L 1204.92 2317.16 L 1201.472 2335.73 L 1120.227 2346.165 L 1120.227 2346.165 Z  M 1190.023 2245.22 L 1094.365 2271.56 L 1102.405 2296.08 L 1190.302 2264.2 L 1190.023 2245.22 L 1190.023 2245.22 L 1190.023 2245.22 Z  M 1162.337 2202.813 L 1093.913 2248.465 L 1093.873 2248.4 L 1088.743 2251.819 L 1080.611 2226.645 L 1080.437 2226.358 L 1157.045 2184.739 L 1162.337 2202.813 L 1162.337 2202.813 L 1162.337 2202.813 Z " fill-rule="evenodd" fill="rgb(255,153,0)"></path></g></svg>