<svg xmlns="http://www.w3.org/2000/svg" width="1030" height="1030"><g transform="translate(-500 25)">&gt;<g xmlns="http://www.w3.org/2000/svg"><path d=" M 955.523 509.8 L 905.988 281.518 L 905.942 281.518 L 905.942 217.714 L 1129.734 217.714 L 1129.734 281.494 L 1129.783 281.494 L 1080.243 509.8 L 1080.335 509.8 L 1017.678 534.613 L 955.022 509.8 L 955.523 509.8 Z " fill="rgb(255,153,0)"/><path d=" M 1310.147 201.285 L 1280.894 207.25 L 1280.953 207.452 L 1250.511 221.778 L 1202.567 226.529 L 1202.567 226.401 L 1202.322 226.37 L 1202.272 226.123 L 1202.27 226.363 L 1134.282 217.808 L 1134.282 280.979 L 1201.909 272.47 L 1201.907 272.665 L 1211.376 270.858 L 1211.341 270.684 L 1257.544 255.364 L 1257.558 255.389 L 1257.636 255.333 L 1257.753 255.294 L 1257.745 255.255 L 1292.983 229.983 L 1312.262 222.839 L 1385.069 205.336 L 1310.686 201.209 L 1310.677 201.177 L 1310.555 201.202 L 1310.138 201.179 L 1310.147 201.285 Z " fill="rgb(0,0,0)"/><path d=" M 725.21 201.285 L 754.463 207.25 L 754.404 207.452 L 784.846 221.778 L 832.79 226.529 L 832.79 226.401 L 833.035 226.37 L 833.085 226.123 L 833.087 226.363 L 901.075 217.808 L 901.075 280.979 L 833.448 272.47 L 833.45 272.665 L 823.981 270.858 L 824.016 270.684 L 777.813 255.364 L 777.799 255.389 L 777.721 255.333 L 777.604 255.294 L 777.612 255.255 L 742.374 229.983 L 723.095 222.839 L 650.288 205.336 L 724.671 201.209 L 724.68 201.177 L 724.802 201.202 L 725.219 201.179 L 725.21 201.285 Z " fill="rgb(0,0,0)"/><path d=" M 1068.345 423.541 L 1060.242 377.047 L 1060.424 424.729 L 1068.527 471.223 L 1068.345 423.541 Z " fill="rgb(255,255,255)"/><path d=" M 1048.769 346.797 L 1091.697 331.992 L 1105.308 285.3 L 1048.769 346.797 Z " fill="rgb(255,255,255)"/><path d=" M 967.425 423.541 L 975.528 377.047 L 975.346 424.729 L 967.242 471.223 L 967.425 423.541 Z " fill="rgb(255,255,255)"/><path d=" M 987.001 346.797 L 944.073 331.992 L 930.462 285.3 L 987.001 346.797 Z " fill="rgb(255,255,255)"/><path d=" M 1069.759 509.33 L 1043.885 509.983 L 1026.12 527.732 L 1069.759 509.33 Z " fill="rgb(255,255,255)"/><path d=" M 965.114 509.33 L 990.987 509.983 L 1008.753 527.732 L 965.114 509.33 Z " fill="rgb(255,255,255)"/><path d=" M 1458.194 116.211 L 1018.785 827.813 L 576.503 116.211 L 1458.194 116.211 Z " fill="none" stroke-width="10" stroke="rgb(255,153,0)" stroke-linejoin="miter" stroke-linecap="square" stroke-miterlimit="3"/></g></g></svg>